<?xml version="1.0" encoding="utf-8"?>
<svg version="1.1" xmlns="http://www.w3.org/2000/svg" xmlns:xlink="http://www.w3.org/1999/xlink" x="0px" y="0px"
	 viewBox="0 0 18 18">
<g id="account">
	<path d="M17.5,9c0-1.4-0.3-2.8-1-4c-0.7-1.2-1.6-2.3-2.8-3c-1.2-0.8-2.5-1.2-3.9-1.4C8.4,0.4,7,0.7,5.7,1.2
		C4.4,1.8,3.3,2.6,2.4,3.7C1.5,4.8,0.9,6.1,0.7,7.4s-0.2,2.8,0.3,4.1c0.4,1.3,1.2,2.5,2.2,3.5c1.6,1.5,3.7,2.4,5.9,2.4
		c2.2,0,4.3-0.8,5.9-2.3c0,0,0.1-0.1,0.1-0.1c0.8-0.8,1.4-1.7,1.9-2.8C17.2,11.2,17.5,10.1,17.5,9z M9,1.3c1.5,0,3,0.4,4.2,1.3
		s2.2,2,2.9,3.3c0.6,1.4,0.8,2.9,0.6,4.4c-0.2,1.5-0.9,2.9-1.9,4c-0.4-0.8-1-1.5-1.6-2.1c-0.7-0.6-1.5-1-2.3-1.2
		c0.7-0.4,1.3-1,1.6-1.8c0.3-0.7,0.4-1.6,0.2-2.4s-0.7-1.5-1.3-2C10.6,4.3,9.8,4.1,9,4.1S7.4,4.3,6.8,4.8C6.1,5.3,5.7,6,5.5,6.8
		C5.3,7.6,5.3,8.4,5.6,9.2c0.3,0.7,0.9,1.4,1.6,1.8c-0.9,0.2-1.6,0.7-2.3,1.2c-0.7,0.6-1.2,1.3-1.6,2.1c-1.3-1.4-2-3.3-2-5.2
		c0-2.1,0.8-4,2.3-5.5C5,2.1,6.9,1.3,9,1.3z M9,10.7c-0.6,0-1.1-0.2-1.6-0.5C6.9,9.8,6.5,9.4,6.3,8.9C6.1,8.3,6,7.7,6.1,7.2
		s0.4-1.1,0.8-1.5C7.3,5.3,7.9,5,8.4,4.9C9,4.7,9.6,4.8,10.1,5c0.5,0.2,1,0.6,1.3,1.1c0.3,0.5,0.5,1,0.5,1.6c0,0.8-0.3,1.5-0.9,2.1
		C10.5,10.4,9.8,10.7,9,10.7z M3.8,14.7c0.5-1,1.2-1.8,2.1-2.4c0.9-0.6,2-0.9,3.1-0.9c1.1,0,2.2,0.3,3.1,0.9
		c0.9,0.6,1.7,1.4,2.1,2.4c-1.4,1.3-3.3,2-5.2,2C7.1,16.7,5.2,16,3.8,14.7z"/>
</g>
<g id="cart">
	<g>
		<path d="M8.6,13.3c-0.3,0-0.6,0.1-0.8,0.2c-0.2,0.2-0.4,0.4-0.5,0.6c-0.1,0.3-0.1,0.6-0.1,0.8c0.1,0.3,0.2,0.5,0.4,0.7
			C7.7,16,8,16.1,8.3,16.2c0.3,0.1,0.6,0,0.8-0.1c0.3-0.1,0.5-0.3,0.6-0.5S10,15,10,14.7c0-0.4-0.2-0.7-0.4-1
			C9.3,13.5,8.9,13.3,8.6,13.3z M8.6,15.5c-0.1,0-0.3,0-0.4-0.1C8,15.3,7.9,15.2,7.9,15c-0.1-0.1-0.1-0.3,0-0.4
			c0-0.1,0.1-0.3,0.2-0.4c0.1-0.1,0.2-0.2,0.4-0.2c0.1,0,0.3,0,0.4,0c0.1,0.1,0.2,0.1,0.3,0.3c0.1,0.1,0.1,0.3,0.1,0.4
			c0,0.2-0.1,0.4-0.2,0.5C8.9,15.4,8.7,15.5,8.6,15.5L8.6,15.5z"/>
		<path d="M13.8,13.3c-0.3,0-0.6,0.1-0.8,0.2c-0.2,0.2-0.4,0.4-0.5,0.6c-0.1,0.3-0.1,0.6-0.1,0.8c0.1,0.3,0.2,0.5,0.4,0.7
			c0.2,0.2,0.5,0.3,0.7,0.4c0.3,0.1,0.6,0,0.8-0.1c0.3-0.1,0.5-0.3,0.6-0.5c0.2-0.2,0.2-0.5,0.2-0.8c0-0.4-0.2-0.7-0.4-1
			C14.6,13.5,14.2,13.3,13.8,13.3z M13.8,15.5c-0.1,0-0.3,0-0.4-0.1c-0.1-0.1-0.2-0.2-0.3-0.3c-0.1-0.1-0.1-0.3,0-0.4
			c0-0.1,0.1-0.3,0.2-0.4c0.1-0.1,0.2-0.2,0.4-0.2c0.1,0,0.3,0,0.4,0c0.1,0.1,0.2,0.1,0.3,0.3c0.1,0.1,0.1,0.3,0.1,0.4
			c0,0.2-0.1,0.4-0.2,0.5C14.2,15.4,14,15.5,13.8,15.5L13.8,15.5z"/>
		<path d="M16,11.1l1.5-6.5c0-0.2,0-0.3,0-0.5c0-0.2-0.1-0.3-0.2-0.5c-0.1-0.1-0.2-0.2-0.4-0.3c-0.2-0.1-0.3-0.1-0.5-0.1H4.9
			L4.7,2.1c0-0.1-0.1-0.2-0.1-0.2C4.5,1.8,4.4,1.8,4.4,1.8H0.9c-0.1,0-0.2,0-0.3,0.1C0.6,2,0.5,2.1,0.5,2.2c0,0.1,0,0.2,0.1,0.3
			c0.1,0.1,0.2,0.1,0.3,0.1h3.2l0.2,1.1l1.5,7.5l0.3,1.7c0,0.1,0.1,0.2,0.1,0.2c0.1,0.1,0.1,0.1,0.2,0.1h10c0.1,0,0.2,0,0.3-0.1
			c0.1-0.1,0.1-0.2,0.1-0.3s0-0.2-0.1-0.3c-0.1-0.1-0.2-0.1-0.3-0.1H6.8l-0.2-1h9c0.1,0,0.2,0,0.2-0.1C15.9,11.3,16,11.2,16,11.1z
			 M6.5,10.7L5.1,3.9h11.2c0.1,0,0.1,0,0.2,0s0.1,0.1,0.2,0.1c0,0.1,0.1,0.1,0.1,0.2c0,0.1,0,0.1,0,0.2l-1.4,6.2H6.5z"/>
	</g>
</g>
</svg>
