<?xml version="1.0" encoding="utf-8"?>
<svg version="1.1" xmlns="http://www.w3.org/2000/svg" xmlns:xlink="http://www.w3.org/1999/xlink" x="0px" y="0px"
	 viewBox="0 0 38 24" enable-background="new 0 0 38 24" xml:space="preserve">
<g id="visa">
	<path fill="#E6E6E6" d="M35,0H3C1.3,0,0,1.3,0,3v18c0,1.7,1.4,3,3,3h32c1.7,0,3-1.3,3-3V3C38,1.3,36.6,0,35,0z"/>
	<path fill="#FFFFFF" d="M35,1c1.1,0,2,0.9,2,2v18c0,1.1-0.9,2-2,2H3c-1.1,0-2-0.9-2-2V3c0-1.1,0.9-2,2-2H35z"/>
	<path fill="#142688" d="M28.3,10.1H28c-0.4,1-0.7,1.5-1,3h1.9C28.6,11.6,28.6,10.9,28.3,10.1z M31.2,16h-1.7c-0.1,0-0.1,0-0.2-0.1
		L29.1,15L29,14.8h-2.4c-0.1,0-0.2,0-0.2,0.2l-0.3,0.9C26.1,16,26,16,26,16h-2.1l0.2-0.5L27,8.7C27,8.2,27.3,8,27.8,8h1.5
		c0.1,0,0.2,0,0.2,0.2l1.4,6.5c0.1,0.4,0.2,0.7,0.2,1.1C31.2,15.9,31.2,15.9,31.2,16z M17.8,15.7l0.4-1.8c0.1,0,0.2,0.1,0.2,0.1
		c0.7,0.3,1.4,0.5,2.1,0.4c0.2,0,0.5-0.1,0.7-0.2c0.5-0.2,0.5-0.7,0.1-1.1c-0.2-0.2-0.5-0.3-0.8-0.5c-0.4-0.2-0.8-0.4-1.1-0.7
		c-1.2-1-0.8-2.4-0.1-3.1C19.9,8.4,20.2,8,21,8c1.2,0,2.5,0,3.1,0.2h0.1c-0.1,0.6-0.2,1.1-0.4,1.7c-0.5-0.2-1-0.4-1.5-0.4
		c-0.3,0-0.6,0-0.9,0.1c-0.2,0-0.3,0.1-0.4,0.2c-0.2,0.2-0.2,0.5,0,0.7l0.5,0.4c0.4,0.2,0.8,0.4,1.1,0.6c0.5,0.3,1,0.8,1.1,1.4
		c0.2,0.9-0.1,1.7-0.9,2.3c-0.5,0.4-0.7,0.6-1.4,0.6c-1.4,0-2.5,0.1-3.4-0.2C17.9,15.8,17.9,15.8,17.8,15.7z M14.3,16
		c0.1-0.7,0.1-0.7,0.2-1c0.5-2.2,1-4.5,1.4-6.7C16,8.1,16,8,16.2,8H18c-0.2,1.2-0.4,2.1-0.7,3.2c-0.3,1.5-0.6,3-1,4.5
		c0,0.2-0.1,0.2-0.3,0.2L14.3,16z M5,8.2C5,8.1,5.2,8,5.3,8h3.4c0.5,0,0.9,0.3,1,0.8l0.9,4.4c0,0.1,0,0.1,0.1,0.2
		c0-0.1,0.1-0.1,0.1-0.1l2.1-5.1C12.8,8.1,12.9,8,13,8h2.1c0,0.1,0,0.1-0.1,0.2l-3.1,7.3c-0.1,0.2-0.1,0.3-0.2,0.4
		c-0.1,0.1-0.3,0-0.5,0H9.7c-0.1,0-0.2,0-0.2-0.2L7.9,9.5C7.7,9.3,7.4,9,7,8.9C6.4,8.6,5.3,8.4,5.1,8.4L5,8.2z"/>
</g>
<g id="v">
	<path fill="#E6E6E6" d="M35,0H3C1.3,0,0,1.3,0,3v18c0,1.7,1.4,3,3,3h32c1.7,0,3-1.3,3-3V3C38,1.3,36.6,0,35,0z"/>
	<path fill-rule="evenodd" clip-rule="evenodd" fill="#3D95CE" d="M35,1c1.1,0,2,0.9,2,2v18c0,1.1-0.9,2-2,2H3c-1.1,0-2-0.9-2-2V3
		c0-1.1,0.9-2,2-2H35z"/>
	<path fill="#FFFFFF" d="M24.7,8.4c0,3.1-2.6,7-4.6,9.8h-4.7L13.4,6.6l4.2-0.4l1,8.3c0.9-1.6,2.1-4,2.1-5.7c0-0.9-0.2-1.5-0.4-2.1
		L24,5.9C24.5,6.6,24.7,7.4,24.7,8.4z"/>
	<path opacity="7.000000e-02" enable-background="new    " d="M35,0H3C1.3,0,0,1.3,0,3v18c0,1.7,1.4,3,3,3h32c1.7,0,3-1.3,3-3V3
		C38,1.3,36.6,0,35,0z"/>
</g>
<g id="mastercard">
	<path fill="#E6E6E6" d="M35,0H3C1.3,0,0,1.3,0,3v18c0,1.7,1.4,3,3,3h32c1.7,0,3-1.3,3-3V3C38,1.3,36.6,0,35,0z"/>
	<path fill="#FFFFFF" d="M35,1c1.1,0,2,0.9,2,2v18c0,1.1-0.9,2-2,2H3c-1.1,0-2-0.9-2-2V3c0-1.1,0.9-2,2-2H35z"/>
	<path fill="#EB001B" d="M15,19c3.9,0,7-3.1,7-7c0-3.9-3.1-7-7-7s-7,3.1-7,7C8,15.9,11.1,19,15,19z"/>
	<path fill="#F79E1B" d="M23,19c3.9,0,7-3.1,7-7c0-3.9-3.1-7-7-7s-7,3.1-7,7C16,15.9,19.1,19,23,19z"/>
	<path fill="#FF5F00" d="M22,12c0-2.4-1.2-4.5-3-5.7c-1.8,1.3-3,3.4-3,5.7s1.2,4.5,3,5.7C20.8,16.5,22,14.4,22,12z"/>
</g>
<g id="q-pay">
	<path fill="#E6E6E6" d="M35,0H3C1.3,0,0,1.3,0,3v18c0,1.7,1.4,3,3,3h32c1.7,0,3-1.3,3-3V3C38,1.3,36.6,0,35,0z"/>
	<path fill="#5A31F4" d="M35,1c1.1,0,2,0.9,2,2v18c0,1.1-0.9,2-2,2H3c-1.1,0-2-0.9-2-2V3c0-1.1,0.9-2,2-2H35z"/>
	<path fill="#FFFFFF" d="M21.4,9.7c0,1.7-1.2,2.9-2.8,2.9H17c0,0-0.1,0-0.1,0c0,0,0,0,0,0.1c0,0,0,0,0,0v2.2c0,0,0,0,0,0
		c0,0,0,0,0,0c0,0,0,0,0,0c0,0,0,0,0,0h-1.1c0,0-0.1,0-0.1,0c0,0,0-0.1,0-0.1V7c0,0,0-0.1,0-0.1c0,0,0,0,0.1,0c0,0,0,0,0.1,0h2.9
		C20.2,6.9,21.4,8,21.4,9.7L21.4,9.7z M20,9.7c0-1-0.7-1.7-1.6-1.7H17c0,0,0,0,0,0c0,0,0,0,0,0c0,0,0,0,0,0c0,0,0,0,0,0v3.1
		c0,0,0,0,0,0c0,0,0,0,0,0c0,0,0,0,0,0s0,0,0,0h1.5C19.4,11.4,20,10.7,20,9.7z M21.7,13.5c0-0.3,0-0.5,0.2-0.7
		c0.1-0.2,0.3-0.4,0.5-0.6c0.4-0.3,1.1-0.5,2.1-0.5l1,0v-0.3c0-0.6-0.4-0.9-1.1-0.9c-0.7,0-1.1,0.2-1.2,0.6c0,0,0,0,0,0.1
		c0,0,0,0-0.1,0h-1c0,0-0.1,0-0.1,0c0,0,0,0,0-0.1c0,0,0,0,0-0.1c0.2-0.9,0.9-1.6,2.5-1.6c1.7,0,2.3,0.8,2.3,2.3v3.2c0,0,0,0,0,0
		c0,0,0,0,0,0c0,0,0,0,0,0c0,0,0,0-0.1,0h-1c0,0-0.1,0-0.1,0c0,0,0-0.1,0-0.1v-0.2c0,0,0,0,0-0.1c0,0,0,0,0,0c0,0,0,0-0.1,0
		c0,0,0,0-0.1,0c-0.3,0.3-0.8,0.6-1.6,0.6C22.5,15.2,21.7,14.6,21.7,13.5z M25.4,12.8v-0.2l-1.3,0.1c-0.7,0-1.1,0.3-1.1,0.8
		c0,0.4,0.4,0.7,1,0.7C24.9,14.1,25.4,13.7,25.4,12.8z M27.8,17.4v-0.9c0,0,0,0,0-0.1c0,0,0,0,0,0c0,0,0,0,0.1,0s0,0,0.1,0
		c0.2,0,0.3,0,0.5,0c0.3,0,0.5-0.1,0.8-0.2c0.2-0.2,0.4-0.4,0.5-0.7l0.1-0.2c0,0,0-0.1,0-0.1l-2.1-5.5c0,0,0-0.1,0-0.1
		c0,0,0-0.1,0.1-0.1c0,0,0,0,0.1,0h1c0,0,0.1,0,0.1,0c0,0,0,0,0,0.1l1.5,3.9c0,0,0,0,0,0.1c0,0,0,0,0.1,0c0,0,0.1,0,0.1,0
		c0,0,0,0,0-0.1l1.3-3.8c0,0,0,0,0-0.1c0,0,0,0,0.1,0H33c0,0,0.1,0,0.1,0c0,0,0,0.1,0,0.1c0,0,0,0,0,0.1l-2.3,6.1
		c-0.5,1.4-1.4,1.8-2.4,1.8c-0.2,0-0.4,0-0.6-0.1C27.8,17.5,27.8,17.5,27.8,17.4C27.8,17.5,27.8,17.4,27.8,17.4L27.8,17.4z M8.6,6.4
		c-1.4,0-2.7,0.5-3.7,1.4c0,0-0.1,0.1-0.1,0.1c0,0.1,0,0.1,0,0.2L5.5,9c0,0,0,0.1,0.1,0.1c0,0,0.1,0,0.1,0c0,0,0.1,0,0.1,0
		c0,0,0.1,0,0.1-0.1c0.4-0.4,0.8-0.6,1.3-0.8s1-0.3,1.5-0.3c2.1,0,3.2,1.6,3.2,3.2c0,1.7-1.2,2.9-2.8,2.9c-1.3,0-2.3-0.9-2.3-2
		c0-0.3,0.1-0.6,0.2-0.8c0.1-0.3,0.3-0.5,0.5-0.7c0,0,0.1-0.1,0.1-0.2c0-0.1,0-0.1-0.1-0.2L6.8,9.4c0,0,0,0-0.1-0.1c0,0-0.1,0-0.1,0
		c0,0-0.1,0-0.1,0c0,0-0.1,0-0.1,0c-0.4,0.3-0.7,0.7-0.9,1.2c-0.2,0.5-0.3,1-0.3,1.5c0,1.9,1.7,3.5,3.8,3.5h0c2.5,0,4.3-1.9,4.3-4.4
		C13.3,8.8,11.7,6.4,8.6,6.4z"/>
</g>
<g id="klarna">
	<path fill="#E6E6E6" d="M35,0H3C1.3,0,0,1.3,0,3v18c0,1.7,1.4,3,3,3h32c1.7,0,3-1.3,3-3V3C38,1.3,36.6,0,35,0z"/>
	<path fill-rule="evenodd" clip-rule="evenodd" fill="#FFB3C7" d="M35,1c1.1,0,2,0.9,2,2v18c0,1.1-0.9,2-2,2H3c-1.1,0-2-0.9-2-2V3
		c0-1.1,0.9-2,2-2H35z"/>
	<path fill="#0A0B09" d="M34.1,13.2c-0.5,0-0.9,0.4-0.9,0.9c0,0.5,0.4,0.9,0.9,0.9c0.5,0,0.9-0.4,0.9-0.9c0-0.2-0.1-0.5-0.3-0.6
		C34.6,13.3,34.4,13.2,34.1,13.2z M31.2,12.5c0-0.7-0.6-1.2-1.3-1.2c-0.7,0-1.3,0.5-1.3,1.2s0.6,1.2,1.3,1.2
		C30.6,13.7,31.2,13.2,31.2,12.5L31.2,12.5z M31.2,10.1h1.4v4.8h-1.4v-0.3c-0.4,0.3-0.9,0.4-1.4,0.4c-1.4,0-2.5-1.1-2.5-2.5
		c0-1.4,1.1-2.5,2.5-2.5c0.5,0,1,0.2,1.4,0.4V10.1z M20,10.7v-0.6h-1.4v4.8H20v-2.2c0-0.7,0.8-1.1,1.4-1.1h0v-1.4
		C20.8,10.1,20.2,10.4,20,10.7z M16.4,12.5c0-0.7-0.6-1.2-1.3-1.2c-0.7,0-1.3,0.5-1.3,1.2s0.6,1.2,1.3,1.2
		C15.8,13.7,16.4,13.2,16.4,12.5z M16.4,10.1h1.4v4.8h-1.4v-0.3C16,14.8,15.5,15,15,15c-1.4,0-2.5-1.1-2.5-2.5
		c0-1.4,1.1-2.5,2.5-2.5c0.5,0,1,0.2,1.4,0.4L16.4,10.1L16.4,10.1z M24.8,10c-0.6,0-1.1,0.2-1.4,0.7v-0.5H22v4.8h1.4v-2.5
		c0-0.7,0.5-1.1,1.1-1.1c0.6,0,1,0.4,1,1.1v2.5h1.4v-3C26.9,10.7,26,10,24.8,10z M10.5,14.9h1.5V8h-1.5V14.9L10.5,14.9z M4,14.9h1.6
		V8H4V14.9z M9.4,8c0,0.7-0.1,1.4-0.4,2.1c-0.3,0.7-0.7,1.3-1.2,1.8l2.2,3H8.1l-2.3-3.2l0.6-0.5c0.5-0.4,0.9-0.9,1.2-1.4
		S7.9,8.6,7.9,8H9.4z"/>
</g>
<g id="g-pay">
	<path fill="#E6E6E6" d="M35,0H3C1.3,0,0,1.3,0,3v18c0,1.7,1.4,3,3,3h32c1.7,0,3-1.3,3-3V3C38,1.3,36.6,0,35,0z"/>
	<path fill="#FFFFFF" d="M35,1c1.1,0,2,0.9,2,2v18c0,1.1-0.9,2-2,2H3c-1.1,0-2-0.9-2-2V3c0-1.1,0.9-2,2-2H35z"/>
	<path fill="#5F6368" d="M18.1,12v3.2h-1V7.3h2.7c0.3,0,0.6,0.1,0.9,0.2C21,7.6,21.3,7.7,21.5,8c0.2,0.2,0.4,0.4,0.5,0.7
		c0.1,0.3,0.2,0.6,0.2,0.9c0,0.3,0,0.6-0.1,0.9c-0.1,0.3-0.3,0.5-0.5,0.8l-0.1,0.1C21,11.8,20.4,12,19.8,12L18.1,12z M18.1,8.2V11
		h1.7c0.4,0,0.7-0.1,1-0.4c0.2-0.2,0.3-0.4,0.4-0.7c0-0.3,0-0.5-0.1-0.8c-0.1-0.3-0.3-0.5-0.5-0.6c-0.2-0.2-0.5-0.2-0.8-0.2
		L18.1,8.2z M24.6,9.6c0.6,0,1.3,0.2,1.8,0.6c0.4,0.4,0.7,1,0.6,1.6v3.3h-1v-0.8h0c-0.2,0.3-0.4,0.5-0.7,0.7c-0.3,0.2-0.6,0.2-1,0.2
		c-0.5,0-1.1-0.2-1.5-0.5c-0.2-0.2-0.4-0.4-0.5-0.6c-0.1-0.2-0.2-0.5-0.2-0.7c0-0.3,0-0.5,0.1-0.7c0.1-0.2,0.3-0.4,0.5-0.6
		c0.5-0.4,1.1-0.5,1.7-0.5c0.5,0,1,0.1,1.5,0.3v-0.2c0-0.2,0-0.3-0.1-0.5c-0.1-0.2-0.2-0.3-0.3-0.4c-0.3-0.2-0.6-0.4-1-0.4
		c-0.3,0-0.5,0.1-0.8,0.2c-0.2,0.1-0.4,0.3-0.6,0.5l-0.9-0.6c0.2-0.3,0.6-0.6,1-0.8C23.7,9.7,24.2,9.6,24.6,9.6z M23.3,13.5
		c0,0.1,0,0.3,0.1,0.4c0.1,0.1,0.1,0.2,0.3,0.3c0.2,0.2,0.5,0.3,0.8,0.3c0.4,0,0.8-0.2,1.1-0.5c0.3-0.3,0.5-0.7,0.5-1.1
		c-0.4-0.3-0.9-0.4-1.3-0.4c-0.4,0-0.7,0.1-1,0.3c-0.1,0.1-0.2,0.2-0.3,0.3C23.3,13.2,23.3,13.4,23.3,13.5z M32.6,9.8l-3.4,7.8h-1
		l1.3-2.7l-2.2-5.1h1.1l1.6,3.9l1.6-3.9H32.6z"/>
	<path fill="#4285F4" d="M14,11.3c0-0.3,0-0.6-0.1-0.9H9.6v1.7h2.5c0,0.3-0.2,0.5-0.3,0.8c-0.2,0.2-0.4,0.4-0.6,0.6v1.1h1.5
		c0.4-0.4,0.8-0.9,1-1.5C13.9,12.5,14,11.9,14,11.3z"/>
	<path fill="#34A853" d="M9.6,15.7c1.1,0,2.2-0.4,3-1.1l-1.5-1.1c-0.4,0.2-0.8,0.4-1.2,0.4c-0.4,0-0.8,0-1.2-0.1
		c-0.4-0.1-0.8-0.4-1-0.7c-0.3-0.3-0.5-0.7-0.6-1.1H5.6v1.2C6,14,6.5,14.6,7.2,15C8,15.5,8.8,15.7,9.6,15.7z"/>
	<path fill="#FBBC04" d="M7.1,12c-0.2-0.6-0.2-1.2,0-1.7V9.1H5.6c-0.3,0.6-0.5,1.3-0.5,2s0.2,1.4,0.5,2L7.1,12z"/>
	<path fill="#EA4335" d="M9.6,8.4c0.6,0,1.3,0.2,1.7,0.7l1.3-1.3C11.8,7,10.7,6.6,9.6,6.6c-0.8,0-1.7,0.2-2.4,0.7
		C6.5,7.8,6,8.4,5.6,9.1l1.5,1.2c0.2-0.5,0.5-1,1-1.3C8.5,8.6,9.1,8.4,9.6,8.4z"/>
</g>
<g id="f">
	<path fill="#E6E6E6" d="M35,0H3C1.3,0,0,1.3,0,3v18c0,1.7,1.4,3,3,3h32c1.7,0,3-1.3,3-3V3C38,1.3,36.6,0,35,0z"/>
	<path fill="#FFFFFF" d="M35,1c1.1,0,2,0.9,2,2v18c0,1.1-0.9,2-2,2H3c-1.1,0-2-0.9-2-2V3c0-1.1,0.9-2,2-2H35z"/>
	<path fill="#3086C8" d="M12,12v3.7c0,0.3-0.2,0.3-0.5,0.2c-1.9-0.8-3-3.3-2.3-5.4c0.4-1.1,1.2-2,2.3-2.4C11.9,7.9,12,8,12,8.3V12z
		 M14,12V8.3C14,8,14,8,14.3,8.1c2.1,0.8,3.2,3.3,2.4,5.4c-0.4,1.1-1.2,2-2.3,2.4C14,16.1,14,16,14,15.7V12z M21.2,5H13
		c3.8,0,6.8,3.1,6.8,7s-3,7-6.8,7h8.2c3.8,0,6.8-3.1,6.8-7S25,5,21.2,5z"/>
</g>
<g id="amex">
	<path fill="#E6E6E6" d="M35,0H3C1.3,0,0,1.3,0,3v18c0,1.7,1.4,3,3,3h32c1.7,0,3-1.3,3-3V3C38,1.3,36.6,0,35,0z"/>
	<path fill="#006FCF" d="M35,1c1.1,0,2,0.9,2,2v18c0,1.1-0.9,2-2,2H3c-1.1,0-2-0.9-2-2V3c0-1.1,0.9-2,2-2H35z"/>
	<path fill="#FFFFFF" d="M9,10.3l0.8,1.9H8.2L9,10.3z M25,10.3h-3v0.8H25v1.2h-2.9v0.9h3v0.7l2.1-2.2l-2.1-2.3L25,10.3z M11,8h4
		l0.9,1.9L16.7,8h10.4l1.1,1.2L29.2,8H34l-3.5,3.9l3.5,3.8h-4.8l-1.1-1.2l-1.1,1.2H10l-0.5-1.2H8.4l-0.5,1.2H4L7.3,8h3.4L11,8z
		 M19.6,9.1h-2.2l-1.5,3.5l-1.6-3.5h-2.2v4.8L10,9.1H8l-2.4,5.5h1.6l0.5-1.2h2.6l0.5,1.2h2.7v-3.9l1.8,3.9h1.2l1.7-3.9v3.9h1.5
		L19.6,9.1L19.6,9.1z M29,11.9l2.5-2.8h-1.8l-1.6,1.7l-1.5-1.7h-5.9v5.5h5.8l1.6-1.7l1.5,1.7h1.9L29,11.9L29,11.9z"/>
</g>
</svg>
