<svg width="19" height="19" viewBox="0 0 19 19" fill="none" xmlns="http://www.w3.org/2000/svg"><path d="M18.05 9H1.868L7.79 1.215a.538.538 0 00.083-.164.647.647 0 000-.387A.538.538 0 007.79.5a.397.397 0 00-.125-.11.306.306 0 00-.294 0 .397.397 0 00-.124.11L.682 9.145a.448.448 0 00-.065.115L.6 9.31l-.012.05a.276.276 0 000 .043.655.655 0 000 .195.276.276 0 000 .042l.012.05.019.05a.448.448 0 00.065.115L7.246 18.5a.394.394 0 00.124.111.302.302 0 00.295 0 .394.394 0 00.124-.11.531.531 0 00.082-.163.64.64 0 000-.383.533.533 0 00-.082-.162L1.868 10H18.05c.1 0 .197-.053.269-.146a.59.59 0 00.111-.354.59.59 0 00-.111-.353A.341.341 0 0018.05 9z" fill="#000"/></svg>