<svg xmlns="http://www.w3.org/2000/svg" viewBox="0 0 18 18"><path d="M17.5 9c0-1.4-.3-2.8-1-4-.7-1.2-1.6-2.3-2.8-3C12.5 1.2 11.2.8 9.8.6 8.4.4 7 .7 5.7 1.2c-1.3.6-2.4 1.4-3.3 2.5C1.5 4.8.9 6.1.7 7.4s-.2 2.8.3 4.1c.4 1.3 1.2 2.5 2.2 3.5 1.6 1.5 3.7 2.4 5.9 2.4s4.3-.8 5.9-2.3l.1-.1c.8-.8 1.4-1.7 1.9-2.8.2-1 .5-2.1.5-3.2zM9 1.3c1.5 0 3 .4 4.2 1.3s2.2 2 2.9 3.3c.6 1.4.8 2.9.6 4.4-.2 1.5-.9 2.9-1.9 4-.4-.8-1-1.5-1.6-2.1-.7-.6-1.5-1-2.3-1.2.7-.4 1.3-1 1.6-1.8.3-.7.4-1.6.2-2.4s-.7-1.5-1.3-2c-.8-.5-1.6-.7-2.4-.7s-1.6.2-2.2.7c-.7.5-1.1 1.2-1.3 2-.2.8-.2 1.6.1 2.4.3.7.9 1.4 1.6 1.8-.9.2-1.6.7-2.3 1.2-.7.6-1.2 1.3-1.6 2.1-1.3-1.4-2-3.3-2-5.2 0-2.1.8-4 2.3-5.5C5 2.1 6.9 1.3 9 1.3zm0 9.4c-.6 0-1.1-.2-1.6-.5-.5-.4-.9-.8-1.1-1.3-.2-.6-.3-1.2-.2-1.7s.4-1.1.8-1.5c.4-.4 1-.7 1.5-.8.6-.2 1.2-.1 1.7.1s1 .6 1.3 1.1c.3.5.5 1 .5 1.6 0 .8-.3 1.5-.9 2.1-.5.6-1.2.9-2 .9zm-5.2 4c.5-1 1.2-1.8 2.1-2.4.9-.6 2-.9 3.1-.9s2.2.3 3.1.9c.9.6 1.7 1.4 2.1 2.4-1.4 1.3-3.3 2-5.2 2-1.9 0-3.8-.7-5.2-2z" id="account"/><path d="M8.6 13.3c-.3 0-.6.1-.8.2-.2.2-.4.4-.5.6-.1.3-.1.6-.1.8.1.3.2.5.4.7.1.4.4.5.7.6.3.1.6 0 .8-.1.3-.1.5-.3.6-.5s.3-.6.3-.9c0-.4-.2-.7-.4-1-.3-.2-.7-.4-1-.4zm0 2.2c-.1 0-.3 0-.4-.1-.2-.1-.3-.2-.3-.4-.1-.1-.1-.3 0-.4 0-.1.1-.3.2-.4.1-.1.2-.2.4-.2h.4c.1.1.2.1.3.3.1.1.1.3.1.4 0 .2-.1.4-.2.5-.2.2-.4.3-.5.3zm5.2-2.2c-.3 0-.6.1-.8.2-.2.2-.4.4-.5.6-.1.3-.1.6-.1.8.1.3.2.5.4.7.2.2.5.3.7.4.3.1.6 0 .8-.1.3-.1.5-.3.6-.5.2-.2.2-.5.2-.8 0-.4-.2-.7-.4-1-.1-.1-.5-.3-.9-.3zm0 2.2c-.1 0-.3 0-.4-.1l-.3-.3c-.1-.1-.1-.3 0-.4 0-.1.1-.3.2-.4.1-.1.2-.2.4-.2h.4c.1.1.2.1.3.3.1.1.1.3.1.4 0 .2-.1.4-.2.5-.1.1-.3.2-.5.2zm2.2-4.4l1.5-6.5v-.5c0-.2-.1-.3-.2-.5-.1-.1-.2-.2-.4-.3-.2-.1-.3-.1-.5-.1H4.9l-.2-1.1c0-.1-.1-.2-.1-.2-.1-.1-.2-.1-.2-.1H.9c-.1 0-.2 0-.3.1 0 .1-.1.2-.1.3 0 .1 0 .2.1.3.1.1.2.1.3.1h3.2l.2 1.1 1.5 7.5.3 1.7c0 .1.1.2.1.2.1.1.1.1.2.1h10c.1 0 .2 0 .3-.1.1-.1.1-.2.1-.3s0-.2-.1-.3c-.1-.1-.2-.1-.3-.1H6.8l-.2-1h9c.1 0 .2 0 .2-.1.1 0 .2-.1.2-.2zm-9.5-.4L5.1 3.9h11.4c.1 0 .1.1.2.1 0 .1.1.1.1.2v.2l-1.4 6.2H6.5z" id="cart"/></svg>