<svg xmlns="http://www.w3.org/2000/svg" viewBox="0 0 38 24"><g id="visa"><path fill="#E6E6E6" d="M35 0H3C1.3 0 0 1.3 0 3v18c0 1.7 1.4 3 3 3h32c1.7 0 3-1.3 3-3V3c0-1.7-1.4-3-3-3z"/><path fill="#FFF" d="M35 1c1.1 0 2 .9 2 2v18c0 1.1-.9 2-2 2H3c-1.1 0-2-.9-2-2V3c0-1.1.9-2 2-2h32z"/><path fill="#142688" d="M28.3 10.1H28c-.4 1-.7 1.5-1 3h1.9c-.3-1.5-.3-2.2-.6-3zm2.9 5.9h-1.7c-.1 0-.1 0-.2-.1l-.2-.9-.1-.2h-2.4c-.1 0-.2 0-.2.2l-.3.9c0 .1-.1.1-.1.1h-2.1l.2-.5L27 8.7c0-.5.3-.7.8-.7h1.5c.1 0 .2 0 .2.2l1.4 6.5c.1.4.2.7.2 1.1.1.1.1.1.1.2zm-13.4-.3l.4-1.8c.1 0 .2.1.2.1.7.3 1.4.5 2.1.4.2 0 .5-.1.7-.2.5-.2.5-.7.1-1.1-.2-.2-.5-.3-.8-.5-.4-.2-.8-.4-1.1-.7-1.2-1-.8-2.4-.1-3.1.6-.4.9-.8 1.7-.8 1.2 0 2.5 0 3.1.2h.1c-.1.6-.2 1.1-.4 1.7-.5-.2-1-.4-1.5-.4-.3 0-.6 0-.9.1-.2 0-.3.1-.4.2-.2.2-.2.5 0 .7l.5.4c.4.2.8.4 1.1.6.5.3 1 .8 1.1 1.4.2.9-.1 1.7-.9 2.3-.5.4-.7.6-1.4.6-1.4 0-2.5.1-3.4-.2-.1.2-.1.2-.2.1zm-3.5.3c.1-.7.1-.7.2-1 .5-2.2 1-4.5 1.4-6.7.1-.2.1-.3.3-.3H18c-.2 1.2-.4 2.1-.7 3.2-.3 1.5-.6 3-1 4.5 0 .2-.1.2-.3.2l-1.7.1zM5 8.2c0-.1.2-.2.3-.2h3.4c.5 0 .9.3 1 .8l.9 4.4c0 .1 0 .1.1.2 0-.1.1-.1.1-.1l2.1-5.1c-.1-.1 0-.2.1-.2h2.1c0 .1 0 .1-.1.2l-3.1 7.3c-.1.2-.1.3-.2.4-.1.1-.3 0-.5 0H9.7c-.1 0-.2 0-.2-.2L7.9 9.5c-.2-.2-.5-.5-.9-.6-.6-.3-1.7-.5-1.9-.5L5 8.2z"/></g><g id="v"><path fill="#E6E6E6" d="M35 0H3C1.3 0 0 1.3 0 3v18c0 1.7 1.4 3 3 3h32c1.7 0 3-1.3 3-3V3c0-1.7-1.4-3-3-3z"/><path fill-rule="evenodd" clip-rule="evenodd" fill="#3D95CE" d="M35 1c1.1 0 2 .9 2 2v18c0 1.1-.9 2-2 2H3c-1.1 0-2-.9-2-2V3c0-1.1.9-2 2-2h32z"/><path fill="#FFF" d="M24.7 8.4c0 3.1-2.6 7-4.6 9.8h-4.7l-2-11.6 4.2-.4 1 8.3c.9-1.6 2.1-4 2.1-5.7 0-.9-.2-1.5-.4-2.1l3.7-.8c.5.7.7 1.5.7 2.5z"/><path opacity=".07" d="M35 0H3C1.3 0 0 1.3 0 3v18c0 1.7 1.4 3 3 3h32c1.7 0 3-1.3 3-3V3c0-1.7-1.4-3-3-3z"/></g><g id="mastercard"><path fill="#E6E6E6" d="M35 0H3C1.3 0 0 1.3 0 3v18c0 1.7 1.4 3 3 3h32c1.7 0 3-1.3 3-3V3c0-1.7-1.4-3-3-3z"/><path fill="#FFF" d="M35 1c1.1 0 2 .9 2 2v18c0 1.1-.9 2-2 2H3c-1.1 0-2-.9-2-2V3c0-1.1.9-2 2-2h32z"/><path fill="#EB001B" d="M15 19c3.9 0 7-3.1 7-7s-3.1-7-7-7-7 3.1-7 7 3.1 7 7 7z"/><path fill="#F79E1B" d="M23 19c3.9 0 7-3.1 7-7s-3.1-7-7-7-7 3.1-7 7 3.1 7 7 7z"/><path fill="#FF5F00" d="M22 12c0-2.4-1.2-4.5-3-5.7-1.8 1.3-3 3.4-3 5.7s1.2 4.5 3 5.7c1.8-1.2 3-3.3 3-5.7z"/></g><g id="q-pay"><path fill="#E6E6E6" d="M35 0H3C1.3 0 0 1.3 0 3v18c0 1.7 1.4 3 3 3h32c1.7 0 3-1.3 3-3V3c0-1.7-1.4-3-3-3z"/><path fill="#5A31F4" d="M35 1c1.1 0 2 .9 2 2v18c0 1.1-.9 2-2 2H3c-1.1 0-2-.9-2-2V3c0-1.1.9-2 2-2h32z"/><path fill="#FFF" d="M21.4 9.7c0 1.7-1.2 2.9-2.8 2.9h-1.7v2.3h-1.2v-8h3.1c1.4 0 2.6 1.1 2.6 2.8zm-1.4 0c0-1-.7-1.7-1.6-1.7H17v3.1h1.5c.9.3 1.5-.4 1.5-1.4zm1.7 3.8c0-.3 0-.5.2-.7.1-.2.3-.4.5-.6.4-.3 1.1-.5 2.1-.5h1v-.3c0-.6-.4-.9-1.1-.9-.7 0-1.1.2-1.2.6v.1H22V11c.2-.9.9-1.6 2.5-1.6 1.7 0 2.3.8 2.3 2.3v3.2h-1.2v-.4h-.2c-.3.3-.8.6-1.6.6-1.3.1-2.1-.5-2.1-1.6zm3.7-.7v-.2l-1.3.1c-.7 0-1.1.3-1.1.8 0 .4.4.7 1 .7.9-.1 1.4-.5 1.4-1.4zm2.4 4.6v-1h.7c.3 0 .5-.1.8-.2.2-.2.4-.4.5-.7l.1-.2v-.1l-2.1-5.5v-.1s0-.1.1-.1h1.2v.1l1.5 3.9v.1h.2v-.1l1.3-3.8v-.1h1v.2l-2.3 6.1c-.5 1.4-1.4 1.8-2.4 1.8-.2 0-.4 0-.6-.1v-.2c0 .1 0 0 0 0zM8.6 6.4c-1.4 0-2.7.5-3.7 1.4l-.1.1v.2l.7.9s0 .1.1.1h.2s.1 0 .1-.1c.4-.4.8-.6 1.3-.8s1-.3 1.5-.3c2.1 0 3.2 1.6 3.2 3.2 0 1.7-1.2 2.9-2.8 2.9-1.3 0-2.3-.9-2.3-2 0-.3.1-.6.2-.8.1-.3.3-.5.5-.7 0 0 .1-.1.1-.2s0-.1-.1-.2l-.7-.7-.1-.1h-.3c-.4.3-.7.7-.9 1.2-.2.5-.3 1-.3 1.5 0 1.9 1.7 3.5 3.8 3.5 2.5 0 4.3-1.9 4.3-4.4 0-2.3-1.6-4.7-4.7-4.7z"/></g><g id="klarna"><path fill="#E6E6E6" d="M35 0H3C1.3 0 0 1.3 0 3v18c0 1.7 1.4 3 3 3h32c1.7 0 3-1.3 3-3V3c0-1.7-1.4-3-3-3z"/><path fill-rule="evenodd" clip-rule="evenodd" fill="#FFB3C7" d="M35 1c1.1 0 2 .9 2 2v18c0 1.1-.9 2-2 2H3c-1.1 0-2-.9-2-2V3c0-1.1.9-2 2-2h32z"/><path fill="#0A0B09" d="M34.1 13.2c-.5 0-.9.4-.9.9s.4.9.9.9.9-.4.9-.9c0-.2-.1-.5-.3-.6-.1-.2-.3-.3-.6-.3zm-2.9-.7c0-.7-.6-1.2-1.3-1.2-.7 0-1.3.5-1.3 1.2s.6 1.2 1.3 1.2c.7 0 1.3-.5 1.3-1.2zm0-2.4h1.4v4.8h-1.4v-.3c-.4.3-.9.4-1.4.4-1.4 0-2.5-1.1-2.5-2.5s1.1-2.5 2.5-2.5c.5 0 1 .2 1.4.4v-.3zm-11.2.6v-.6h-1.4v4.8H20v-2.2c0-.7.8-1.1 1.4-1.1v-1.4c-.6-.1-1.2.2-1.4.5zm-3.6 1.8c0-.7-.6-1.2-1.3-1.2-.7 0-1.3.5-1.3 1.2s.6 1.2 1.3 1.2c.7 0 1.3-.5 1.3-1.2zm0-2.4h1.4v4.8h-1.4v-.3c-.4.2-.9.4-1.4.4-1.4 0-2.5-1.1-2.5-2.5S13.6 10 15 10c.5 0 1 .2 1.4.4v-.3zm8.4-.1c-.6 0-1.1.2-1.4.7v-.5H22V15h1.4v-2.5c0-.7.5-1.1 1.1-1.1.6 0 1 .4 1 1.1V15h1.4v-3c0-1.3-.9-2-2.1-2zm-14.3 4.9H12V8h-1.5v6.9zm-6.5 0h1.6V8H4v6.9zM9.4 8c0 .7-.1 1.4-.4 2.1-.3.7-.7 1.3-1.2 1.8l2.2 3H8.1l-2.3-3.2.6-.5c.5-.4.9-.9 1.2-1.4s.3-1.2.3-1.8h1.5z"/></g><g id="g-pay"><path fill="#E6E6E6" d="M35 0H3C1.3 0 0 1.3 0 3v18c0 1.7 1.4 3 3 3h32c1.7 0 3-1.3 3-3V3c0-1.7-1.4-3-3-3z"/><path fill="#FFF" d="M35 1c1.1 0 2 .9 2 2v18c0 1.1-.9 2-2 2H3c-1.1 0-2-.9-2-2V3c0-1.1.9-2 2-2h32z"/><path fill="#5F6368" d="M18.1 12v3.2h-1V7.3h2.7c.3 0 .6.1.9.2.3.1.6.2.8.5.2.2.4.4.5.7.1.3.2.6.2.9 0 .3 0 .6-.1.9-.1.3-.3.5-.5.8l-.1.1c-.5.4-1.1.6-1.7.6h-1.7zm0-3.8V11h1.7c.4 0 .7-.1 1-.4.2-.2.3-.4.4-.7 0-.3 0-.5-.1-.8-.1-.3-.3-.5-.5-.6-.2-.2-.5-.2-.8-.2l-1.7-.1zm6.5 1.4c.6 0 1.3.2 1.8.6.4.4.7 1 .6 1.6v3.3h-1v-.8c-.2.3-.4.5-.7.7-.3.2-.6.2-1 .2-.5 0-1.1-.2-1.5-.5-.2-.2-.4-.4-.5-.6-.1-.2-.2-.5-.2-.7 0-.3 0-.5.1-.7.1-.2.3-.4.5-.6.5-.4 1.1-.5 1.7-.5.5 0 1 .1 1.5.3v-.2c0-.2 0-.3-.1-.5s-.2-.3-.3-.4c-.3-.2-.6-.4-1-.4-.3 0-.5.1-.8.2-.2.1-.4.3-.6.5l-.9-.6c.2-.3.6-.6 1-.8.5 0 1-.1 1.4-.1zm-1.3 3.9c0 .1 0 .3.1.4.1.1.1.2.3.3.2.2.5.3.8.3.4 0 .8-.2 1.1-.5.3-.3.5-.7.5-1.1-.4-.3-.9-.4-1.3-.4s-.7.1-1 .3l-.3.3c-.2.1-.2.3-.2.4zm9.3-3.7l-3.4 7.8h-1l1.3-2.7-2.2-5.1h1.1l1.6 3.9 1.6-3.9h1z"/><path fill="#4285F4" d="M14 11.3c0-.3 0-.6-.1-.9H9.6v1.7h2.5c0 .3-.2.5-.3.8l-.6.6v1.1h1.5c.4-.4.8-.9 1-1.5.2-.6.3-1.2.3-1.8z"/><path fill="#34A853" d="M9.6 15.7c1.1 0 2.2-.4 3-1.1l-1.5-1.1c-.4.2-.8.4-1.2.4-.4 0-.8 0-1.2-.1-.4-.1-.8-.4-1-.7-.3-.3-.5-.7-.6-1.1H5.6v1.2c.4.8.9 1.4 1.6 1.8.8.5 1.6.7 2.4.7z"/><path fill="#FBBC04" d="M7.1 12c-.2-.6-.2-1.2 0-1.7V9.1H5.6c-.3.6-.5 1.3-.5 2s.2 1.4.5 2L7.1 12z"/><path fill="#EA4335" d="M9.6 8.4c.6 0 1.3.2 1.7.7l1.3-1.3c-.8-.8-1.9-1.2-3-1.2-.8 0-1.7.2-2.4.7-.7.5-1.2 1.1-1.6 1.8l1.5 1.2c.2-.5.5-1 1-1.3.4-.4 1-.6 1.5-.6z"/></g><g id="f"><path fill="#E6E6E6" d="M35 0H3C1.3 0 0 1.3 0 3v18c0 1.7 1.4 3 3 3h32c1.7 0 3-1.3 3-3V3c0-1.7-1.4-3-3-3z"/><path fill="#FFF" d="M35 1c1.1 0 2 .9 2 2v18c0 1.1-.9 2-2 2H3c-1.1 0-2-.9-2-2V3c0-1.1.9-2 2-2h32z"/><path fill="#3086C8" d="M12 12v3.7c0 .3-.2.3-.5.2-1.9-.8-3-3.3-2.3-5.4.4-1.1 1.2-2 2.3-2.4.4-.2.5-.1.5.2V12zm2 0V8.3c0-.3 0-.3.3-.2 2.1.8 3.2 3.3 2.4 5.4-.4 1.1-1.2 2-2.3 2.4-.4.2-.4.1-.4-.2V12zm7.2-7H13c3.8 0 6.8 3.1 6.8 7s-3 7-6.8 7h8.2c3.8 0 6.8-3.1 6.8-7s-3-7-6.8-7z"/></g><g id="amex"><path fill="#E6E6E6" d="M35 0H3C1.3 0 0 1.3 0 3v18c0 1.7 1.4 3 3 3h32c1.7 0 3-1.3 3-3V3c0-1.7-1.4-3-3-3z"/><path fill="#006FCF" d="M35 1c1.1 0 2 .9 2 2v18c0 1.1-.9 2-2 2H3c-1.1 0-2-.9-2-2V3c0-1.1.9-2 2-2h32z"/><path fill="#FFF" d="M9 10.3l.8 1.9H8.2l.8-1.9zm16 0h-3v.8h3v1.2h-2.9v.9h3v.7l2.1-2.2-2.1-2.3-.1.9zM11 8h4l.9 1.9.8-1.9h10.4l1.1 1.2 1-1.2H34l-3.5 3.9 3.5 3.8h-4.8l-1.1-1.2-1.1 1.2H10l-.5-1.2H8.4l-.5 1.2H4L7.3 8H11zm8.6 1.1h-2.2l-1.5 3.5-1.6-3.5h-2.2v4.8L10 9.1H8l-2.4 5.5h1.6l.5-1.2h2.6l.5 1.2h2.7v-3.9l1.8 3.9h1.2l1.7-3.9v3.9h1.5l-.1-5.5zm9.4 2.8l2.5-2.8h-1.8l-1.6 1.7-1.5-1.7h-5.9v5.5h5.8l1.6-1.7 1.5 1.7h1.9L29 11.9z"/></g></svg>